<svg xmlns="http://www.w3.org/2000/svg" xmlns:xlink="http://www.w3.org/1999/xlink" width="375" viewBox="0 0 375 375" height="375" version="1.0"><defs><g id="a"><path d="M 24.375 -45.496094 L 3.316406 -45.496094 L 3.316406 0 L 24.242188 0 C 33.796875 0 38.800781 -7.34375 38.800781 -14.6875 C 38.800781 -18.523438 36.851562 -22.488281 32.042969 -24.957031 C 35.03125 -27.039062 36.398438 -30.222656 36.398438 -33.34375 C 36.398438 -39.320312 31.585938 -45.496094 24.375 -45.496094 Z M 22.683594 -29.054688 L 14.300781 -29.054688 L 14.300781 -35.421875 L 22.8125 -35.421875 C 24.566406 -35.421875 25.542969 -33.863281 25.542969 -32.300781 C 25.542969 -30.675781 24.632812 -29.054688 22.683594 -29.054688 Z M 24.242188 -10.527344 L 14.300781 -10.527344 L 14.300781 -18.785156 L 24.242188 -18.785156 C 26.582031 -18.785156 27.753906 -16.703125 27.753906 -14.625 C 27.753906 -12.542969 26.582031 -10.527344 24.242188 -10.527344 Z M 24.242188 -10.527344"/></g><g id="b"><path d="M 24.046875 -27.882812 L 12.089844 -45.496094 L 3.25 -45.496094 L 3.25 0 L 14.363281 0 L 14.363281 -22.617188 L 20.929688 -12.804688 L 27.101562 -12.804688 L 33.667969 -22.488281 L 33.667969 0 L 44.714844 0 L 44.714844 -45.496094 L 36.007812 -45.496094 Z M 24.046875 -27.882812"/></g></defs><g fill="#FFF"><use x="142.72" y="209.677" xmlns:xlink="http://www.w3.org/1999/xlink" xlink:href="#a" xlink:type="simple" xlink:actuate="onLoad" xlink:show="embed"/></g><g fill="#CB6CE6"><use x="184.052" y="209.677" xmlns:xlink="http://www.w3.org/1999/xlink" xlink:href="#b" xlink:type="simple" xlink:actuate="onLoad" xlink:show="embed"/></g></svg>